<svg id="visual" viewBox="0 0 1920 1080" width="1920" height="1080" xmlns="http://www.w3.org/2000/svg" xmlns:xlink="http://www.w3.org/1999/xlink" version="1.1"><rect x="0" y="0" width="1920" height="1080" fill="#001220"></rect><path d="M0 670L45.7 681.8C91.3 693.7 182.7 717.3 274.2 731C365.7 744.7 457.3 748.3 548.8 736.3C640.3 724.3 731.7 696.7 823 688.8C914.3 681 1005.7 693 1097 693.2C1188.3 693.3 1279.7 681.7 1371.2 694C1462.7 706.3 1554.3 742.7 1645.8 753.7C1737.3 764.7 1828.7 750.3 1874.3 743.2L1920 736L1920 1081L1874.3 1081C1828.7 1081 1737.3 1081 1645.8 1081C1554.3 1081 1462.7 1081 1371.2 1081C1279.7 1081 1188.3 1081 1097 1081C1005.7 1081 914.3 1081 823 1081C731.7 1081 640.3 1081 548.8 1081C457.3 1081 365.7 1081 274.2 1081C182.7 1081 91.3 1081 45.7 1081L0 1081Z" fill="#fa7268"></path><path d="M0 844L45.7 842.2C91.3 840.3 182.7 836.7 274.2 829.7C365.7 822.7 457.3 812.3 548.8 795.5C640.3 778.7 731.7 755.3 823 758C914.3 760.7 1005.7 789.3 1097 809C1188.3 828.7 1279.7 839.3 1371.2 838.5C1462.7 837.7 1554.3 825.3 1645.8 809.3C1737.3 793.3 1828.7 773.7 1874.3 763.8L1920 754L1920 1081L1874.3 1081C1828.7 1081 1737.3 1081 1645.8 1081C1554.3 1081 1462.7 1081 1371.2 1081C1279.7 1081 1188.3 1081 1097 1081C1005.7 1081 914.3 1081 823 1081C731.7 1081 640.3 1081 548.8 1081C457.3 1081 365.7 1081 274.2 1081C182.7 1081 91.3 1081 45.7 1081L0 1081Z" fill="#ef5f67"></path><path d="M0 886L45.7 874.7C91.3 863.3 182.7 840.7 274.2 834.8C365.7 829 457.3 840 548.8 853.5C640.3 867 731.7 883 823 884.2C914.3 885.3 1005.7 871.7 1097 854.8C1188.3 838 1279.7 818 1371.2 806.3C1462.7 794.7 1554.3 791.3 1645.8 811.8C1737.3 832.3 1828.7 876.7 1874.3 898.8L1920 921L1920 1081L1874.3 1081C1828.7 1081 1737.3 1081 1645.8 1081C1554.3 1081 1462.7 1081 1371.2 1081C1279.7 1081 1188.3 1081 1097 1081C1005.7 1081 914.3 1081 823 1081C731.7 1081 640.3 1081 548.8 1081C457.3 1081 365.7 1081 274.2 1081C182.7 1081 91.3 1081 45.7 1081L0 1081Z" fill="#e34c67"></path><path d="M0 945L45.7 937.8C91.3 930.7 182.7 916.3 274.2 921.5C365.7 926.7 457.3 951.3 548.8 953.3C640.3 955.3 731.7 934.7 823 917.2C914.3 899.7 1005.7 885.3 1097 880.3C1188.3 875.3 1279.7 879.7 1371.2 893.3C1462.7 907 1554.3 930 1645.8 927.8C1737.3 925.7 1828.7 898.3 1874.3 884.7L1920 871L1920 1081L1874.3 1081C1828.7 1081 1737.3 1081 1645.8 1081C1554.3 1081 1462.7 1081 1371.2 1081C1279.7 1081 1188.3 1081 1097 1081C1005.7 1081 914.3 1081 823 1081C731.7 1081 640.3 1081 548.8 1081C457.3 1081 365.7 1081 274.2 1081C182.7 1081 91.3 1081 45.7 1081L0 1081Z" fill="#d53867"></path><path d="M0 1030L45.7 1017.3C91.3 1004.7 182.7 979.3 274.2 975.2C365.7 971 457.3 988 548.8 997.5C640.3 1007 731.7 1009 823 1000.2C914.3 991.3 1005.7 971.7 1097 975.3C1188.3 979 1279.7 1006 1371.2 1013.3C1462.7 1020.7 1554.3 1008.3 1645.8 995.7C1737.3 983 1828.7 970 1874.3 963.5L1920 957L1920 1081L1874.3 1081C1828.7 1081 1737.3 1081 1645.8 1081C1554.3 1081 1462.7 1081 1371.2 1081C1279.7 1081 1188.3 1081 1097 1081C1005.7 1081 914.3 1081 823 1081C731.7 1081 640.3 1081 548.8 1081C457.3 1081 365.7 1081 274.2 1081C182.7 1081 91.3 1081 45.7 1081L0 1081Z" fill="#c62368"></path></svg>